<?xml version="1.0" encoding="UTF-8"?>
<svg version="1.1" viewBox="0 0 2048 2048" width="20" height="20" xmlns="http://www.w3.org/2000/svg">
<path transform="translate(1803,795)" d="m0 0h31l25 3 22 5 24 8 25 12 19 12 17 13 13 12 13 13 13 17 10 15 10 18 10 24 7 24 6 30v44l-6 32-7 24-8 19-12 23-8 12-9 12-12 14-12 12-11 9-13 10-18 11-19 10-24 9-23 6-27 4-14 1h-13l-24-2-22-4-24-7-19-8-16-8-18-11-13-10-14-12-14-14-9-11-10-13-9-15-10-19-9-23-6-22-4-23-1-9v-35l3-23 5-23 8-23 12-25 11-18 13-17 9-10 8-9 8-7 12-10 17-12 21-12 21-9 15-5 25-6z" fill="#C8D6DE"/>
<path transform="translate(213,795)" d="m0 0h32l25 3 25 6 25 9 22 11 17 11 16 12 13 12 14 14 11 14 9 13 12 21 10 23 7 22 5 26 2 20v25l-4 32-7 26-8 21-8 16-9 16-10 14-9 11-9 10-12 12-14 11-11 8-18 11-23 11-27 9-24 5-15 2-15 1h-13l-24-2-22-4-24-7-21-9-21-11-12-8-13-10-14-12-11-11-7-8-13-17-13-21-10-21-10-30-7-34v-49l7-33 6-20 9-21 10-19 10-15 10-13 12-13 14-14 14-11 13-9 15-9 23-11 27-9 24-5z" fill="#C8D6DE"/>
<path transform="translate(1008,795)" d="m0 0h31l25 3 22 5 24 8 25 12 16 10 14 10 14 12 18 18 13 17 10 15 7 12 10 22 8 24 5 23 2 16 1 13v19l-3 28-5 23-8 24-9 20-13 22-12 16-9 10-7 8-10 10-14 11-14 10-21 12-17 8-27 9-24 5-16 2-14 1h-13l-24-2-22-4-24-7-24-10-20-11-17-12-11-9-12-11-9-9-9-11-10-13-11-18-8-15-8-20-6-19-5-25-2-18v-30l2-19 5-24 6-20 10-23 8-15 11-17 10-13 10-11 7-8 11-10 20-15 20-12 23-11 20-7 20-5 20-3z" fill="#C8D6DE"/>
</svg>
