<?xml version="1.0" encoding="UTF-8"?>
<svg version="1.1" viewBox="0 0 2048 2048" width="1280" height="1280" xmlns="http://www.w3.org/2000/svg">
<path transform="translate(572,578)" d="m0 0h902l15 2 13 4 14 7 13 10 9 9 9 13 6 12 4 13 2 17v715l-2 18-5 17-9 16-9 11-11 10-13 8-19 7-12 2-12 1h-885l-16-1-17-4-16-8-9-6-12-11-10-13-7-14-4-13-2-12v-730l4-18 7-16 9-13 5-6h2v-2l14-11 11-6 13-5 9-2zm434 280-19 3-18 5-21 9-18 11-13 10-13 12-9 10-11 15-10 18-7 17-6 20-3 20v32l3 19 6 21 7 17 10 18 10 13 9 10 3 4h2v2l8 7 13 10 16 10 23 10 21 6 23 3h23l17-2 21-5 19-7 19-10 17-12 13-12 9-9v-2h2l13-18 6-10 9-20 6-20 3-16 1-10v-25l-2-17-5-21-7-18-8-16-9-14-8-10-9-10-13-12-17-12-23-12-20-7-19-4-8-1z"/>
<path transform="translate(217,1691)" d="m0 0h1614l15 2 15 5 16 9 13 11v2h2l10 14 8 16 4 15 1 8v190l-2 15-4 13-8 16-8 11-10 10-14 9-15 7-12 4h-1636l-20-7-11-6-12-9-10-10-10-15-6-14-3-12-1-7v-198l4-18 8-17 5-8h2l2-4 8-9 13-10 14-7 12-4zm131 135-10 3-11 7-7 8-5 10-3 14 1 11 4 11 6 9 9 8 8 4 7 2h19l12-5 8-6 8-9 5-12 1-5v-12l-4-13-6-10-9-8-10-5-8-2zm267 0-12 4-11 8v2h-2l-6 9-4 12-1 11 2 11 6 12 9 10 11 6 7 2h19l12-5 8-6 8-9 4-8 2-8v-14l-4-13-7-10-8-7-10-5-7-2zm268 0-13 4-9 7-8 9-5 11-1 4v18l4 11 6 9 8 7 9 5 7 2h19l12-5 6-4 5-5 5-6 5-11 1-5v-15l-4-12-7-10-9-8-11-5-5-1zm267 0-10 3-10 6-8 8-6 11-2 8v16l3 10 7 11 9 8 8 4 8 2h18l10-4 10-6 7-8 5-10 2-7v-16l-3-10-6-10-8-8-14-7-5-1zm266 0-11 4-9 6-9 10-5 12-1 5v14l3 10 6 10 5 6 11 7 10 3h18l11-4 11-8 8-11 4-11v-18l-4-11-6-9-5-5-5-4-11-5-5-1zm268 0-10 3-10 6-7 7-5 8-4 14v13l4 12 6 9 4 5 11 7 10 3h18l11-4 10-7 7-8 5-11 1-4v-19l-5-12-6-9-9-7-11-5-5-1z"/>
<path transform="translate(981)" d="m0 0h90v1l38 7 28 7 30 10 26 11 22 11 17 10 11 7 19 13 16 13 11 9 16 15 13 13 7 8 12 14 15 20 10 15 12 20 12 23 10 22 8 21 10 35 6 29 3 23 2 30v124l-1 1h-222l-1-1-1-125-3-21-5-19-6-16-8-16-8-14-10-13-12-13-12-11-17-12-18-10-20-8-23-6-21-3h-26l-23 3-22 6-15 6-19 10-13 9-10 8-12 11-10 11-10 14-8 13-10 21-6 19-4 18-1 9-1 27-1 103h-223l-1-5v-101l1-33 3-28 5-29 8-31 10-29 13-30 12-23 14-23 10-14 9-12 8-10 13-15 29-29 11-9 16-13 13-9 17-11 19-11 19-10 31-13 27-9 28-7 26-5z"/>
<path transform="translate(1016,923)" d="m0 0h16l18 3 14 5 15 8 10 8 10 9 9 12 8 14 5 13 3 14 1 18-2 18-5 16-8 16-8 11-3 4h-2l-2 4-12 10-13 8-15 6-12 3-7 1h-26l-14-3-13-5-15-8-10-8-7-6-11-14-8-14-5-13-3-12-1-8v-17l3-17 3-10 8-17 10-14 12-12 10-7 14-8 18-6z"/>
<path transform="translate(202,2047)" d="m0 0 2 1z"/>
</svg>
