<?xml version="1.0" encoding="UTF-8"?>
<svg version="1.1" viewBox="0 0 2048 2048" width="20" height="20" xmlns="http://www.w3.org/2000/svg">
<path transform="translate(611,163)" stroke="currentColor" fill='currentColor'  d="m0 0 13 1 10 4 8 6 8 9 4 8 2 11v125h736v-128l4-13 8-11 11-8 8-3 13-1 11 2 10 5 8 7 7 11 3 11v128h188l30 3 23 5 21 7 20 9 18 10 12 8 13 10 10 9 8 7 12 13 13 17 12 19 8 16 8 19 6 19 5 23 2 18 1 27v1078l-1 30-3 21-5 23-9 25-12 25-11 17-12 16-11 12-15 15-10 8-14 10-20 12-19 9-27 9-23 5-23 3-22 1h-1246l-36-2-24-4-24-7-24-10-17-9-11-7-16-12-13-11-16-16-11-14-9-12-11-19-11-23-8-24-5-24-2-15-1-14v-1114l2-22 5-25 6-20 6-15 10-21 12-19 10-13 8-10h2l2-4 12-12 8-7 16-12 19-12 16-8 19-8 23-7 30-5 14-1 189-1 1-129 4-11 7-10 8-7 12-5zm-228 247-17 2-19 5-15 6-15 8-14 10-11 10-12 12-8 11-8 13-8 17-6 19-3 16-1 17v99h1555l1-45v-26l-1-43-3-17-5-17-7-16-9-16-9-12-12-13-12-10-15-10-15-8-20-7-12-3-17-2zm-101 327-36 1v917l2 25 5 19 6 16 9 17 10 14 9 10 10 10 16 12 16 9 20 8 15 4 14 2 17 1h1166l109-1 22-4 22-8 19-10 11-8 14-12 12-13 11-16 8-16 6-15 4-15 2-15v-931l-102-1z"/>
</svg>
