<?xml version="1.0" encoding="UTF-8"?>
<svg version="1.1" viewBox="0 0 2048 2048" width="20" height="20" xmlns="http://www.w3.org/2000/svg">
<path  stroke="currentColor" fill='currentColor'  transform="translate(453,121)" d="m0 0h1142l12 5 9 7 6 9 4 9 1 4v12l-4 12-10 14-10 11-9 11-9 10-9 11-10 11-9 11-11 12-9 11-10 11-9 11-9 10-9 11-11 12-9 11-10 11-9 11-11 12-9 11-9 10-9 11-10 11-9 11-10 11-9 11-11 12-9 11-11 12-9 11-10 11-9 11-10 11-9 11-10 11-7 8-3 4 2 5 11 12 9 11 9 10 9 11 10 11 9 11 10 11 9 11 11 12 9 11 9 10 9 11 11 12 9 11 10 11 9 11 10 11 9 11 11 12 9 11 10 11 9 11 10 11 9 11 10 11 9 11 10 11 7 8 11 13 13 15 12 14 9 10 9 11 11 13 5 10 2 7v12l-4 12-8 11-10 7-7 3-5 1-1091 1v883l-3 10-6 10-9 8-12 5-3 1h-15l-11-4-9-6-7-9-4-8-2-8v-1748l4-13 5-8h2l2-4 9-6zm85 80-36 1v739h912l82-1-2-4-12-14-9-11-11-12-9-11-11-12-9-11-9-10-9-11-9-10-9-11-12-13-9-11-10-11-9-11-9-10-7-8-12-14-7-8-24-28-9-10-9-11-9-10-9-11-10-11-9-11-12-13-9-11-10-11-9-11-7-10-4-13v-8l2-10 5-10 9-10 8-10 13-15 9-10 9-11 3-3v-2h2l9-11 9-10 9-11 9-10 9-11 12-13 9-11 8-9v-2h2l7-8 9-11 13-15 9-10 9-11 12-13 9-11 13-15 12-14 9-10 9-11 9-10 6-7v-2h2l7-8 9-11 13-15 7-8v-2h2l3-5-263-1z"/>
</svg>
