<?xml version="1.0" encoding="UTF-8"?>
<svg version="1.1" viewBox="0 0 2048 2048" width="20" height="20" xmlns="http://www.w3.org/2000/svg">
<path  stroke="currentColor" fill='currentColor' 
transform="translate(446,191)" d="m0 0h1155l16 2 12 5 11 7 11 11 8 13 4 11 1 4v23l-4 13-6 12-11 12-9 7-13 6-14 3-58 1-12-1v233l-1 47-3 29-4 24-8 32-9 26-12 28-10 19-15 25-8 12-12 16-11 14-12 14-4 5h-2l-2 4-29 29-8 7-10 9-11 9-16 13-11 8-18 13-16 11-23 15-26 16-28 16-28 15-22 12-4 2-1 2 6 2 22 12 19 10 23 13 17 10 21 13 17 11 22 15 19 14 12 9 14 11 14 12 20 18 29 29 7 8 11 13 13 17 10 14 10 15 12 21 9 17 10 23 9 25 7 25 6 29 4 36 1 25v220l-1 35h65l16 2 12 5 11 7 11 11 8 13 5 15v23l-5 16-6 10-11 12-8 6-13 6-14 3h-1168l-13-3-12-6-10-8-7-7-8-13-4-11-2-12 1-16 5-16 7-11 10-11 10-7 15-6 13-2h67v-269l2-27 4-29 6-27 7-24 10-27 9-20 12-22 10-17 11-16 14-19 11-13 9-11 6-7h2l2-4 23-23 8-7 11-10 11-9 16-13 12-9 18-13 14-10 14-9 19-12 21-13 27-15 14-8 34-18 3-1-3-3-24-13-22-12-24-14-22-13-22-14-21-14-17-12-21-16-16-13-11-9-12-11-8-7-28-28-9-11-10-11-10-13-11-15-13-20-13-23-14-29-11-30-8-29-5-26-3-23-2-29-1-266-71-1-13-3-12-6-10-8-7-7-8-13-4-11-2-12 1-16 5-16 7-11 10-11 10-7 15-6zm195 129-1 39v209l1 27 3 26 6 26 8 23 9 20 9 17 12 18 12 16 11 13 7 8 9 9 5 6 8 7 13 12 11 9 14 11 19 14 36 24 32 19 14 8 27 15 20 10 19 10 22 11 20 9 16 8 18 8 9-3 31-15 19-9 19-10 40-20 23-13 27-15 19-12 16-10 15-10 14-10 19-14 17-14 14-12 7-7 2-1v-2l4-2 12-12v-2h2l7-8 12-14 13-18 12-19 11-21 10-25 7-26 4-25 1-11v-272zm378 776-27 13-16 7-48 24-19 10-26 14-24 14-22 13-36 24-15 11-16 12-13 11-11 9-10 10-6 5-7 8-10 10-9 11-8 10-10 14-10 16-10 18-10 23-8 26-5 25-2 20-1 41v232l7 1h760v-272l-3-25-4-20-7-22-8-20-10-20-10-16-12-17-18-22-7-7-2-3h-2l-2-4-4-4h-2v-2h-2v-2l-8-7-11-10-11-9-16-13-14-10-17-12-23-15-21-13-26-15-27-15-35-18-44-22-28-13-9-4z"/>
</svg>
